<?xml version="1.0" encoding="UTF-8" standalone="no"?>
<!DOCTYPE svg PUBLIC "-//W3C//DTD SVG 1.1//EN" "http://www.w3.org/Graphics/SVG/1.1/DTD/svg11.dtd">
<svg width="100%" height="100%" viewBox="0 0 364 364" version="1.1" xmlns="http://www.w3.org/2000/svg" xmlns:xlink="http://www.w3.org/1999/xlink" xml:space="preserve" xmlns:serif="http://www.serif.com/" style="fill-rule:evenodd;clip-rule:evenodd;stroke-linejoin:round;stroke-miterlimit:2;">
    <g transform="matrix(1,0,0,1,-2612.82,-1332.71)">
        <g transform="matrix(4.16667,0,0,4.16667,0,0)">
            <path d="M689.873,375.039C689.873,369.339 689.493,365.005 684.398,363.028C688.655,359.913 688.731,356.718 688.731,354.134L688.731,351.55C688.275,342.959 685.387,339.691 675.428,339.691C665.471,339.691 662.583,342.959 662.125,351.55L662.125,354.134C662.125,356.718 662.202,359.913 666.458,363.028C661.366,365.005 660.986,369.339 660.986,375.039C660.986,383.477 663.95,387.658 675.428,387.885C686.907,387.658 689.873,383.477 689.873,375.039ZM655.373,343.188C655.373,340.984 654.003,340.527 651.343,340.527L644.425,340.527C641.766,340.527 640.397,340.984 640.397,343.188L640.397,345.696C640.397,347.901 641.766,348.356 644.425,348.356L646.022,348.356C647.01,348.356 647.465,348.889 647.465,350.409L647.465,383.249C647.465,385.909 647.922,387.277 650.127,387.277L652.71,387.277C654.916,387.277 655.373,385.909 655.373,383.249L655.373,343.188ZM707.661,359.607L707.661,356.034C707.661,353.375 707.28,352.006 705,352.006L702.718,352.006C700.439,352.006 700.058,353.375 700.058,356.034L700.058,359.607L696.486,359.607C693.826,359.607 692.457,359.987 692.457,362.268L692.457,364.701C692.457,366.981 693.826,367.362 696.486,367.362L700.058,367.362L700.058,370.934C700.058,373.594 700.439,374.963 702.718,374.963L705,374.963C707.28,374.963 707.661,373.594 707.661,370.934L707.661,367.362L712.753,367.362C713.742,367.362 714.274,367.894 714.35,368.882L714.35,380.436C714.35,383.249 713.513,385.377 711.537,387.277L694.585,404.229C692.608,406.206 690.404,407.118 687.668,407.118L653.763,407.118C651.027,407.118 648.823,406.206 646.846,404.229L629.895,387.277C627.918,385.301 627.004,383.249 627.082,380.436L627.082,346.913C627.082,344.1 627.995,341.667 630.047,339.615L647.302,322.131C649.051,320.383 651.255,319.85 653.763,319.85L687.668,319.85C690.176,319.85 692.38,320.383 694.129,322.131L711.385,339.615C713.361,341.667 714.35,344.1 714.35,346.913L714.35,357.859C714.35,358.999 713.817,359.607 712.753,359.607L707.661,359.607ZM675.428,366.981C670.564,366.981 668.815,369.185 668.815,373.974C668.815,378.764 670.564,380.664 675.428,380.664C680.293,380.664 682.042,378.764 682.042,373.974C682.042,369.185 680.293,366.981 675.428,366.981ZM669.576,353.298C669.576,348.205 671.249,346.684 675.428,346.684C679.61,346.684 681.283,348.205 681.283,353.298C681.283,358.239 679.61,359.913 675.428,359.913C671.249,359.913 669.576,358.239 669.576,353.298Z" style="fill:url(#_Linear1);"/>
        </g>
    </g>
    <defs>
        <linearGradient id="_Linear1" x1="0" y1="0" x2="1" y2="0" gradientUnits="userSpaceOnUse" gradientTransform="matrix(87.2734,0,0,87.2734,627.077,363.484)"><stop offset="0" style="stop-color:rgb(240,76,47);stop-opacity:1"/><stop offset="1" style="stop-color:rgb(204,58,43);stop-opacity:1"/></linearGradient>
    </defs>
</svg>
